<?xml version="1.0" encoding="UTF-8"?>
<svg width="51px" height="42px" viewBox="0 0 51 42" version="1.1" xmlns="http://www.w3.org/2000/svg" xmlns:xlink="http://www.w3.org/1999/xlink">
    <title>logo</title>
    <g id="Page-1" stroke="none" stroke-width="1" fill="none" fill-rule="evenodd">
        <g id="logo" transform="translate(0.460940, 0.000000)" fill-rule="nonzero">
            <path d="M0,11.4375 C0,11.4375 6.13796,15.2643 7.97826,19.6533 C10.15896,24.8638 9.57386,29.8257 6.69106,34.1931 C6.69106,34.1931 15.80756,32.5823 18.72226,34.1606 C22.88156,36.4091 21.83906,39.5009 21.83906,39.5009 C21.83906,39.5009 24.26446,37.8145 26.13666,38.0199 C28.91306,38.3226 28.76416,41.998 28.76416,41.998 C29.93436,40.2144 30.11516,36.9172 30.11516,36.9172 C29.78536,29.1447 24.72186,21.7505 18.11586,17.5345 C9.97806,12.3456 0,11.4375 0,11.4375 Z" id="Path" fill="#EEECEC"></path>
            <path d="M13.54296,0 C13.54296,0 21.12756,5.0268 23.17006,11.2643 C25.60606,18.6693 24.49976,25.977 20.52126,32.6361 C20.52126,32.6361 32.28646,29.4363 35.90326,31.4686 C41.07316,34.3766 39.52006,38.9925 39.52006,38.9925 C39.52006,38.9925 42.74326,36.3116 45.12606,36.4305 C48.65776,36.6143 48.21106,41.9978 48.21106,41.9978 C49.82796,39.2736 49.99816,34.4522 49.99816,34.4522 C50.11516,23.1123 44.45596,12.7885 36.30746,7.2429 C26.25496,0.4216 13.55356,0.01081 13.55356,0.01081" id="Path" fill="#004D94"></path>
        </g>
    </g>
</svg>